<?xml version="1.0" encoding="UTF-8"?>
<svg version="1.1" xmlns="http://www.w3.org/2000/svg" width="512" height="512">
<path d="M0 0 C3.70855961 1.52904166 5.85107741 3.77059893 8.5625 6.6875 C22.05575282 20.39774957 40.52355821 26.10221408 58.27709961 32.24731445 C74.83152948 37.99670524 89.49764194 44.24306903 102 57 C102.48726562 56.443125 102.97453125 55.88625 103.4765625 55.3125 C116.42784767 41.3722076 134.20624476 36.14841222 151.67578125 30 C171.08694794 23.13983537 187.52866066 16.234691 201 0 C201.66 0 202.32 0 203 0 C209.01733403 25.32294737 205.99721761 49.13997397 196 73 C196.667397 73.17763382 197.33479401 73.35526764 198.02241516 73.5382843 C204.70241347 75.33541159 211.31760229 77.28651427 217.91796875 79.35546875 C218.90122635 79.66196854 219.88448395 79.96846832 220.89753723 80.28425598 C223.99476579 81.25017514 227.09114413 82.21878743 230.1875 83.1875 C232.30528256 83.84848669 234.42312062 84.50929557 236.54101562 85.16992188 C241.69465295 86.77789586 246.84759768 88.38807337 252 90 C251.28865298 93.11155168 250.41935199 95.11648119 248.515625 97.6953125 C247.99830811 98.40316895 247.48099121 99.11102539 246.94799805 99.84033203 C246.38765869 100.59427246 245.82731934 101.34821289 245.25 102.125 C244.07403161 103.72902949 242.89825637 105.33320059 241.72265625 106.9375 C240.80830811 108.17886719 240.80830811 108.17886719 239.87548828 109.4453125 C236.78654804 113.65289786 233.7388114 117.89009291 230.6875 122.125 C229.58743302 123.64857719 228.48719063 125.17202774 227.38671875 126.6953125 C226.92483154 127.33484863 226.46294434 127.97438477 225.98706055 128.63330078 C225.49846558 129.30981689 225.49846558 129.30981689 225 130 C228.545887 136.93321808 232.53191141 143.42880357 236.88842773 149.8671875 C240.49530457 155.20931538 243.98846273 160.61720495 247.4375 166.0625 C247.94555176 166.85978516 248.45360352 167.65707031 248.97705078 168.47851562 C251.55696446 172.56417176 253.93705893 176.62936214 256 181 C254.91114502 181.34780518 254.91114502 181.34780518 253.80029297 181.70263672 C250.49173841 182.75970484 247.18336765 183.81734707 243.875 184.875 C242.73289062 185.23980469 241.59078125 185.60460937 240.4140625 185.98046875 C238.75117187 186.51220703 238.75117187 186.51220703 237.0546875 187.0546875 C236.03874512 187.37937012 235.02280273 187.70405273 233.97607422 188.03857422 C230.97766764 189.00721451 227.9886584 190.00174939 225 191 C224.18484469 202.98566459 223.80535569 214.93012284 223.68359375 226.94140625 C223.66294984 228.68831285 223.64195189 230.4352153 223.62062073 232.18211365 C223.56616582 236.71760635 223.5164283 241.25313816 223.46777344 245.78869629 C223.41698871 250.44184736 223.36160412 255.09494362 223.30664062 259.74804688 C223.20000002 268.83198413 223.09835768 277.91596954 223 287 C207.98271765 292.52628445 192.96220601 298.04374657 177.93933105 303.55480957 C175.25314726 304.54022209 172.56703857 305.52583895 169.88098145 306.51159668 C162.05003803 309.38530867 154.21822657 312.25663031 146.38466358 315.12319469 C142.88553444 316.40368076 139.38676347 317.68512427 135.8888855 318.96902466 C132.56271464 320.18983498 129.2355114 321.4077898 125.90754318 322.62369156 C124.09981332 323.28494278 122.29312681 323.94904421 120.48648071 324.61325073 C118.31443349 325.40562031 116.13745087 326.18463626 113.95498657 326.94784546 C112.08609039 327.61328591 110.23164241 328.32224534 108.40219116 329.08950806 C100.988922 331.93468343 95.90952518 330.03357758 88.71875 327.21875 C87.53489716 326.78270447 86.35104431 326.34665894 85.13131714 325.8973999 C81.91051798 324.71097144 78.70401003 323.48966602 75.49889374 322.26161194 C72.14083654 320.982136 68.77054806 319.73580484 65.40087891 318.48730469 C61.20764238 316.93133376 57.01576699 315.37202037 52.82925415 313.79803467 C42.97402645 310.09302075 33.08984556 306.47722425 23.1796875 302.921875 C21.82695844 302.43605434 20.47423621 301.95021467 19.121521 301.46435547 C16.4897905 300.5194736 13.85788277 299.5750875 11.22583008 298.63110352 C10.58902313 298.40270782 9.95221619 298.17431213 9.29611206 297.93899536 C8.01343327 297.47897028 6.73073872 297.01898913 5.44802856 296.55905151 C1.24192239 295.05029066 -2.96155529 293.53437739 -7.1640625 292.015625 C-8.22368195 291.63637878 -9.28330139 291.25713257 -10.37503052 290.86639404 C-11.34133392 290.51635315 -12.30763733 290.16631226 -13.30322266 289.80566406 C-14.1429361 289.50339905 -14.98264954 289.20113403 -15.84780884 288.88970947 C-18 288 -18 288 -21 286 C-21.28601949 282.91987386 -21.37789828 280.04177078 -21.34057617 276.96044922 C-21.34123329 275.55549698 -21.34123329 275.55549698 -21.34190369 274.12216187 C-21.33980819 271.01612741 -21.31644122 267.91062804 -21.29296875 264.8046875 C-21.28737551 262.65520523 -21.28310413 260.50571914 -21.28010559 258.35623169 C-21.26863547 252.69095351 -21.2391496 247.02590502 -21.20599365 241.36071777 C-21.17533946 235.58295805 -21.16161021 229.80516131 -21.14648438 224.02734375 C-21.11428202 212.68479476 -21.0630595 201.34241646 -21 190 C-21.68633955 189.86571405 -22.3726791 189.73142811 -23.07981682 189.59307289 C-23.98030313 189.41529493 -24.88078945 189.23751698 -25.80856323 189.05435181 C-27.14744756 188.79104789 -27.14744756 188.79104789 -28.51338005 188.5224247 C-31.27109003 187.94304553 -33.9042718 187.18461597 -36.5703125 186.2734375 C-37.48554688 185.9640625 -38.40078125 185.6546875 -39.34375 185.3359375 C-40.72046875 184.86027344 -40.72046875 184.86027344 -42.125 184.375 C-43.08148438 184.05015625 -44.03796875 183.7253125 -45.0234375 183.390625 C-47.35091277 182.59928341 -49.6763045 181.80235801 -52 181 C-50.43300569 176.48843395 -47.99680898 172.70264035 -45.375 168.75 C-44.39526607 167.25167286 -43.41613954 165.75294843 -42.4375 164.25390625 C-41.89738281 163.42906738 -41.35726562 162.60422852 -40.80078125 161.75439453 C-37.67308584 156.97041139 -34.56027038 152.17708442 -31.46368408 147.3729248 C-30.38681915 145.70579759 -29.30354976 144.04281296 -28.22021484 142.37988281 C-27.55715332 141.35088867 -26.8940918 140.32189453 -26.2109375 139.26171875 C-25.31834229 137.88439575 -25.31834229 137.88439575 -24.40771484 136.47924805 C-23.11734103 134.20665941 -22.25608614 132.59081099 -22 130 C-23.42079479 127.39062635 -24.87972332 125.05762968 -26.5625 122.625 C-27.57802376 121.1075738 -28.59228233 119.58930034 -29.60546875 118.0703125 C-30.15251465 117.25723633 -30.69956055 116.44416016 -31.26318359 115.60644531 C-34.36771972 110.94745913 -37.36850859 106.22260198 -40.375 101.5 C-40.95709229 100.59330566 -41.53918457 99.68661133 -42.13891602 98.75244141 C-45.6365333 93.27279068 -48.90475562 87.71587804 -52 82 C-45.1561423 79.14595589 -38.26786218 76.71721952 -31.1796875 74.546875 C-30.19501495 74.24179016 -29.21034241 73.93670532 -28.1958313 73.62237549 C-25.09006359 72.66106129 -21.98258037 71.7054362 -18.875 70.75 C-16.7524875 70.09412743 -14.63009053 69.43788086 -12.5078125 68.78125 C-7.3398681 67.18317804 -2.17050793 65.58975692 3 64 C2.72647705 62.94723877 2.4529541 61.89447754 2.17114258 60.80981445 C-1.62257272 46.04683859 -1.62257272 46.04683859 -2.3125 39.1875 C-2.38952148 38.45523193 -2.46654297 37.72296387 -2.54589844 36.96850586 C-3.65537312 24.67703694 -2.78250234 12.0214907 0 0 Z " fill="#FEC70E" transform="translate(234,0)"/>
<path d="M0 0 C0.98403809 -0.01893311 1.96807617 -0.03786621 2.98193359 -0.05737305 C22.1953474 0.11066973 40.92918303 8.0052138 58.99188232 13.92657471 C63.18936081 15.30091292 67.38999442 16.66557301 71.59032822 18.03115463 C75.06351819 19.16084086 78.53547703 20.2940455 82.00494385 21.43511963 C88.32591542 23.51110536 94.65078473 25.56183846 101.01475716 27.5027256 C103.84541943 28.36654123 106.67195925 29.24346036 109.49851608 30.12060165 C110.82463184 30.5276766 112.15284262 30.92800251 113.48326492 31.32077408 C123.55073981 34.2945818 132.0281426 37.76303858 137.4375 47.1875 C138.14503321 48.61524622 138.83378184 50.05251395 139.5 51.5 C140.16403673 52.83464506 140.83034096 54.16816706 141.5 55.5 C153.19284879 49.22105357 164.85433517 42.90292399 176.375 36.3125 C185.58502845 31.06278378 194.89664362 26.01432885 204.25665283 21.03842163 C205.7826397 20.22711881 207.30784025 19.41433514 208.83221436 18.6000061 C210.98055581 17.45354082 213.1322574 16.31366076 215.28515625 15.17578125 C215.92486862 14.83365601 216.56458099 14.49153076 217.22367859 14.13903809 C225.81146297 9.62842948 233.58299251 7.93125234 243.0625 10.5 C249.92150752 13.09036986 255.59976911 18.20619346 259 24.6875 C262.25206554 32.28550766 262.39115951 39.92336133 259.73266602 47.75805664 C255.15732281 57.93545406 245.87145962 63.11387759 236.3125 67.875 C235.06360591 68.51709259 233.81590013 69.16150123 232.56933594 69.80810547 C230.06351324 71.10618589 227.55341364 72.39529963 225.03955078 73.67773438 C220.06149671 76.24058412 215.15373327 78.92343129 210.25 81.625 C208.47303831 82.59835406 206.69569361 83.57100923 204.91796875 84.54296875 C204.03544434 85.02556152 203.15291992 85.5081543 202.24365234 86.00537109 C199.37113491 87.5702004 196.49307995 89.12439518 193.61328125 90.67578125 C183.66199745 96.03862793 173.75650803 101.46060322 163.9375 107.0625 C155.43462032 111.91103385 146.82605143 116.49966019 138.12475586 120.98071289 C131.32455286 124.50064811 124.64718424 128.1999143 118 132 C78.18031512 154.65925634 78.18031512 154.65925634 58.5625 155 C57.69294678 155.01901367 56.82339355 155.03802734 55.92749023 155.05761719 C41.77315277 154.91637461 27.73373405 149.08926771 14.375 144.8125 C12.03125911 144.06322778 9.68719579 143.315046 7.34207153 142.57011414 C5.89989941 142.11194433 4.45850061 141.6513303 3.01803589 141.18782043 C-16.17575595 135.08633831 -33.96186452 138.80793678 -51.52416992 147.85742188 C-53.18695319 148.73037793 -54.84412939 149.6140017 -56.5 150.5 C-55.39835882 152.73044611 -54.29378106 154.95935646 -53.1875 157.1875 C-52.87876953 157.81333984 -52.57003906 158.43917969 -52.25195312 159.08398438 C-50.86389142 161.87471896 -49.4460803 164.5870915 -47.8046875 167.23828125 C-45.88555106 170.56516748 -45.89488858 172.73486225 -46.5 176.5 C-51.73422829 181.77942888 -58.40132987 184.9689072 -64.875 188.5 C-67.0713503 189.70644594 -69.26668585 190.9147413 -71.4609375 192.125 C-72.49855225 192.69677979 -73.53616699 193.26855957 -74.60522461 193.85766602 C-77.77817736 195.65782231 -80.84778394 197.57436026 -83.88256836 199.59741211 C-86.58213778 201.10387372 -88.51660437 201.09667913 -91.5 200.5 C-95.23693913 197.9105439 -97.4100878 195.46768813 -99.55859375 191.484375 C-100.10177246 190.49332764 -100.64495117 189.50228027 -101.20458984 188.48120117 C-101.7764502 187.41490479 -102.34831055 186.3486084 -102.9375 185.25 C-104.1868944 182.96900613 -105.43824556 180.68908312 -106.69140625 178.41015625 C-107.32578613 177.25273926 -107.96016602 176.09532227 -108.61376953 174.90283203 C-111.45206491 169.78243842 -114.40676007 164.73333807 -117.375 159.6875 C-122.45253048 151.03196873 -127.467751 142.34276242 -132.4375 133.625 C-137.62411704 124.52902636 -142.82683171 115.44288376 -148.0625 106.375 C-148.9738269 104.79658325 -148.9738269 104.79658325 -149.90356445 103.1862793 C-152.10357611 99.37714291 -154.30441793 95.56848687 -156.50567627 91.7600708 C-158.21766271 88.79813364 -159.92938514 85.83604475 -161.64038086 82.87353516 C-162.92307326 80.65276842 -164.20639548 78.43236529 -165.49047852 76.21240234 C-166.63798563 74.22554585 -167.7827601 72.23710768 -168.92431641 70.24682617 C-169.95119947 68.45670201 -170.98443124 66.67020016 -172.02490234 64.88793945 C-172.48074707 64.09476318 -172.9365918 63.30158691 -173.40625 62.484375 C-173.80392578 61.79956055 -174.20160156 61.11474609 -174.61132812 60.40917969 C-175.5 58.5 -175.5 58.5 -175.875 54.8125 C-172.33449612 46.28310428 -158.94908602 41.65269201 -151.0625 37.1875 C-149.77131894 36.4527646 -148.48030216 35.71774044 -147.18945312 34.98242188 C-134.71578837 27.88637784 -134.71578837 27.88637784 -129.5 28.5 C-124.97663204 32.27929603 -122.42966733 36.70686732 -119.6875 41.8125 C-119.28080078 42.55306641 -118.87410156 43.29363281 -118.45507812 44.05664062 C-117.46235772 45.86689548 -116.48009307 47.68287755 -115.5 49.5 C-98.94351332 41.44088663 -82.74826377 32.69065494 -66.7878418 23.51025391 C-45.03579667 11.0310078 -25.43544795 0.37331871 0 0 Z " fill="#FABC7F" transform="translate(197.5,311.5)"/>
<path d="M0 0 C3.70855961 1.52904166 5.85107741 3.77059893 8.5625 6.6875 C22.05575282 20.39774957 40.52355821 26.10221408 58.27709961 32.24731445 C74.83152948 37.99670524 89.49764194 44.24306903 102 57 C102.48726563 56.443125 102.97453125 55.88625 103.4765625 55.3125 C116.42784767 41.3722076 134.20624476 36.14841222 151.67578125 30 C171.08694794 23.13983537 187.52866066 16.234691 201 0 C201.66 0 202.32 0 203 0 C209.34921426 26.71961 206.76375948 55.77816081 192.2109375 79.50317383 C178.34777909 101.15709811 160.8536678 117.11906518 137 127 C136.09894531 127.37898438 135.19789063 127.75796875 134.26953125 128.1484375 C110.31008419 137.56234137 85.71953272 135.51060651 62.390625 125.55859375 C52.68331595 121.09636298 44.34995131 115.67306976 36 109 C35.21753906 108.38511719 34.43507813 107.77023438 33.62890625 107.13671875 C13.57878614 90.44615531 0.03612405 63.29301097 -2.46484375 37.5390625 C-3.48085404 24.88843185 -2.67925227 12.4219878 0 0 Z " fill="#70D93F" transform="translate(234,0)"/>
<path d="M0 0 C0.33 0 0.66 0 1 0 C2.15898784 31.68627195 2.12397069 63.37141104 2.07202661 95.07362962 C2.06060463 102.17465928 2.05529009 109.27569022 2.05032361 116.37672687 C2.04002506 130.91782736 2.02257581 145.45891341 2 160 C-8.86973579 156.20148131 -19.73856652 152.40110115 -30.5859375 148.5390625 C-31.67733536 148.15066696 -32.76873322 147.76227142 -33.89320374 147.36210632 C-56.11276378 139.44897327 -78.30910587 131.47750817 -100.4375 123.3125 C-101.93527985 122.76121429 -101.93527985 122.76121429 -103.46331787 122.1987915 C-106.24629472 121.17354517 -109.02774387 120.14428062 -111.80859375 119.11328125 C-113.04344261 118.6584864 -113.04344261 118.6584864 -114.30323792 118.19450378 C-119.88439888 116.11560112 -119.88439888 116.11560112 -121 115 C-121.0952822 112.01701786 -121.12552175 109.05723655 -121.11352539 106.07397461 C-121.11367142 105.13748581 -121.11381744 104.20099701 -121.1139679 103.23612976 C-121.11326837 100.12484461 -121.10547415 97.01361851 -121.09765625 93.90234375 C-121.09579221 91.75142957 -121.09436824 89.60051497 -121.09336853 87.44960022 C-121.08954225 81.77618242 -121.07971102 76.10279005 -121.06866455 70.42938232 C-121.0584528 64.64498234 -121.05387142 58.86057827 -121.04882812 53.07617188 C-121.03808885 41.71743672 -121.02101111 30.35872047 -121 19 C-117.37039236 19.66435151 -113.9222345 20.58622425 -110.40625 21.70239258 C-109.30740479 22.04977982 -108.20855957 22.39716705 -107.07641602 22.75508118 C-105.89619873 23.1310997 -104.71598145 23.50711823 -103.5 23.89453125 C-101.62390876 24.48861501 -99.7478174 25.08269838 -97.87171936 25.67676067 C-95.24443026 26.50943392 -92.61792324 27.34455994 -89.99139404 28.17962646 C-85.42998913 29.62926043 -80.86726704 31.07474397 -76.3046875 32.52067566 C-73.88124116 33.28896135 -71.45804741 34.05804448 -69.03515625 34.82807922 C-62.28575288 36.97073784 -55.52675469 39.07823962 -48.75489807 41.14889526 C-46.50404235 41.84427996 -44.26333929 42.55945045 -42.02734375 43.30078125 C-41.00769531 43.63464844 -39.98804688 43.96851563 -38.9375 44.3125 C-37.37322266 44.83263672 -37.37322266 44.83263672 -35.77734375 45.36328125 C-32.86865786 46.03011079 -31.73684732 46.03783518 -29 45 C-27.61868492 43.54057817 -27.61868492 43.54057817 -26.546875 41.625 C-25.87652222 40.53517822 -25.87652222 40.53517822 -25.19262695 39.42333984 C-24.71656006 38.6236377 -24.24049316 37.82393555 -23.75 37 C-22.69786608 35.28308662 -21.64440674 33.56698497 -20.58984375 31.8515625 C-20.02120605 30.91989258 -19.45256836 29.98822266 -18.86669922 29.02832031 C-15.76981103 24.00428146 -12.58431179 19.03711314 -9.39831543 14.06933594 C-8.31966 12.38617265 -7.24429098 10.70090476 -6.16894531 9.015625 C-5.51120117 7.98695313 -4.85345703 6.95828125 -4.17578125 5.8984375 C-3.58708252 4.97724121 -2.99838379 4.05604492 -2.3918457 3.10693359 C-1 1 -1 1 0 0 Z " fill="#FED300" transform="translate(334,171)"/>
<path d="M0 0 C0.46148437 1.06476563 0.92296875 2.12953125 1.3984375 3.2265625 C9.39645437 21.20543793 20.15242487 36.08184411 36 48 C32.94080421 49.63521526 29.8970037 50.75187267 26.58886719 51.78759766 C25.50804871 52.12779938 24.42723022 52.4680011 23.31365967 52.81851196 C22.15312073 53.18004364 20.99258179 53.54157532 19.796875 53.9140625 C18.60394836 54.28856537 17.41102173 54.66306824 16.1819458 55.04891968 C13.019709 56.04099752 9.85658649 57.03014648 6.69299316 58.0178833 C3.46122577 59.0276964 0.23066534 60.04135535 -3 61.0546875 C-9.33222826 63.04000038 -15.66565248 65.02145995 -22 67 C-22 67.33 -22 67.66 -22 68 C-20.87078125 68.34611328 -20.87078125 68.34611328 -19.71875 68.69921875 C-13.53699559 70.59725742 -7.35938639 72.50764985 -1.1875 74.4375 C-0.17333008 74.75424683 -0.17333008 74.75424683 0.86132812 75.07739258 C4.15316754 76.10628704 7.44306325 77.14057399 10.73046875 78.18359375 C17.61487973 80.35949566 24.51460296 82.44621953 31.45483398 84.43774414 C42.68430277 87.66352676 53.77289502 91.19084355 64.83984375 94.93359375 C75.18205003 98.4246551 85.59611632 101.69835936 96 105 C93.37509509 110.44894053 90.52311684 115.52273025 87.1875 120.5625 C86.22093866 122.03227892 85.25481898 123.50234835 84.2890625 124.97265625 C83.76731445 125.76559082 83.24556641 126.55852539 82.70800781 127.37548828 C80.80777263 130.2953751 78.94579629 133.23783496 77.0859375 136.18359375 C75.74479559 138.289065 74.40364979 140.39453377 73.0625 142.5 C72.10476685 144.0324939 72.10476685 144.0324939 71.12768555 145.59594727 C70.21563354 147.01798462 70.21563354 147.01798462 69.28515625 148.46875 C68.74769775 149.31888672 68.21023926 150.16902344 67.65649414 151.04492188 C66 153 66 153 64.06005859 153.85961914 C61.61923838 154.02594666 60.05516402 153.6034035 57.75390625 152.77734375 C56.92922852 152.48972168 56.10455078 152.20209961 55.25488281 151.90576172 C53.92215332 151.42647217 53.92215332 151.42647217 52.5625 150.9375 C45.66893027 148.54746242 38.78657636 146.30308906 31.75 144.375 C20.97183847 141.39135955 10.3382464 137.96650428 -0.3125 134.5625 C-12.71965369 130.59746503 -25.12931716 126.70673885 -37.65356445 123.125 C-44.16804124 121.26011612 -50.60849512 119.25664975 -57 117 C-55.43300569 112.48843395 -52.99680898 108.70264035 -50.375 104.75 C-49.39526607 103.25167286 -48.41613954 101.75294843 -47.4375 100.25390625 C-46.89738281 99.42906738 -46.35726562 98.60422852 -45.80078125 97.75439453 C-42.67308584 92.97041139 -39.56027038 88.17708442 -36.46368408 83.3729248 C-35.38681915 81.70579759 -34.30354976 80.04281296 -33.22021484 78.37988281 C-32.55715332 77.35088867 -31.8940918 76.32189453 -31.2109375 75.26171875 C-30.31834229 73.88439575 -30.31834229 73.88439575 -29.40771484 72.47924805 C-28.11734103 70.20665941 -27.25608614 68.59081099 -27 66 C-28.42079479 63.39062635 -29.87972332 61.05762968 -31.5625 58.625 C-32.57802376 57.1075738 -33.59228233 55.58930034 -34.60546875 54.0703125 C-35.15251465 53.25723633 -35.69956055 52.44416016 -36.26318359 51.60644531 C-39.36771972 46.94745913 -42.36850859 42.22260198 -45.375 37.5 C-45.95709229 36.59330566 -46.53918457 35.68661133 -47.13891602 34.75244141 C-50.6365333 29.27279068 -53.90475562 23.71587804 -57 18 C-50.17740446 15.15870929 -43.31081445 12.72348358 -36.25 10.546875 C-35.2700708 10.24179016 -34.2901416 9.93670532 -33.28051758 9.62237549 C-31.23074947 8.98522901 -29.1803667 8.35005679 -27.12939453 7.71679688 C-23.97913242 6.74355316 -20.83126121 5.76284905 -17.68359375 4.78125 C-15.68503208 4.16101914 -13.68633887 3.54121194 -11.6875 2.921875 C-10.74487305 2.62819031 -9.80224609 2.33450562 -8.83105469 2.03192139 C-7.96254883 1.76454163 -7.09404297 1.49716187 -6.19921875 1.22167969 C-5.43440186 0.98503601 -4.66958496 0.74839233 -3.8815918 0.50457764 C-2 0 -2 0 0 0 Z " fill="#FDA831" transform="translate(239,64)"/>
<path d="M0 0 C6.94066926 1.43384146 13.62502806 3.33775138 20.37890625 5.4765625 C21.43158188 5.80667328 22.48425751 6.13678406 23.5688324 6.47689819 C26.90116599 7.52276781 30.23184533 8.5737975 33.5625 9.625 C35.83387669 10.33888438 38.10536004 11.0524295 40.37695312 11.765625 C45.91920834 13.50649484 51.46011791 15.25159392 57 17 C56.28865298 20.11155168 55.41935199 22.11648119 53.515625 24.6953125 C52.99830811 25.40316895 52.48099121 26.11102539 51.94799805 26.84033203 C51.10748901 27.97124268 51.10748901 27.97124268 50.25 29.125 C49.07403161 30.72902949 47.89825637 32.33320059 46.72265625 33.9375 C45.80830811 35.17886719 45.80830811 35.17886719 44.87548828 36.4453125 C41.78654804 40.65289786 38.7388114 44.89009291 35.6875 49.125 C34.58743302 50.64857719 33.48719063 52.17202774 32.38671875 53.6953125 C31.69388794 54.6546167 31.69388794 54.6546167 30.98706055 55.63330078 C30.49846558 56.30981689 30.49846558 56.30981689 30 57 C33.545887 63.93321808 37.53191141 70.42880357 41.88842773 76.8671875 C45.49530457 82.20931538 48.98846273 87.61720495 52.4375 93.0625 C53.19957764 94.25842773 53.19957764 94.25842773 53.97705078 95.47851562 C56.55696446 99.56417176 58.93705893 103.62936214 61 108 C48.62898701 112.06214742 36.25031332 116.0077842 23.6875 119.4375 C7.1475749 123.96630466 -9.1281905 129.33510053 -25.375 134.8125 C-31.05813786 136.724339 -36.78317216 138.4097721 -42.55859375 140.01953125 C-47.18846796 141.3385987 -51.77144499 142.79602429 -56.35546875 144.265625 C-59 145 -59 145 -62 145 C-63.54807422 142.88440366 -64.86793024 140.81783416 -66.1875 138.5625 C-67.06709381 137.10691301 -67.94875437 135.65257373 -68.83203125 134.19921875 C-69.32525879 133.38372559 -69.81848633 132.56823242 -70.32666016 131.72802734 C-73.59818729 126.39449303 -76.9952968 121.14037122 -80.375 115.875 C-81.40983521 114.25766968 -81.40983521 114.25766968 -82.46557617 112.60766602 C-83.12404541 111.57955811 -83.78251465 110.5514502 -84.4609375 109.4921875 C-85.38471191 108.04537598 -85.38471191 108.04537598 -86.32714844 106.56933594 C-87.6838931 104.48550919 -89.08932866 102.46400786 -90.5390625 100.4453125 C-91.02117187 99.63835937 -91.50328125 98.83140625 -92 98 C-91.67 97.01 -91.34 96.02 -91 95 C-88.52508545 93.89823914 -88.52508545 93.89823914 -85.17480469 92.86206055 C-83.9172084 92.46656006 -82.65961212 92.07105957 -81.36390686 91.66357422 C-79.96663451 91.23772072 -78.5692883 90.81210951 -77.171875 90.38671875 C-75.7246799 89.93652909 -74.27782194 89.4852544 -72.83128357 89.03295898 C-68.94541435 87.82119064 -65.05509436 86.62434063 -61.16381454 85.43008041 C-57.15628478 84.19721308 -53.15317031 82.95018472 -49.1496582 81.7043457 C-41.98779808 79.47778063 -34.82260823 77.26218962 -27.65549374 75.05260181 C-17.45558951 71.90792524 -7.26117714 68.7455869 2.93225098 65.57998657 C5.77367077 64.6995318 8.6166332 63.82422222 11.45996094 62.94995117 C13.14650066 62.42892641 14.83302518 61.90785244 16.51953125 61.38671875 C17.27649796 61.15549316 18.03346466 60.92426758 18.81336975 60.68603516 C22.17649027 59.84078567 22.17649027 59.84078567 25 58 C5.86 52.06 -13.28 46.12 -33 40 C-29.79096912 36.79096912 -26.74229959 33.9025742 -23.3125 31 C-13.52513181 22.21609155 -6.59855002 11.26177113 0 0 Z " fill="#FDA831" transform="translate(429,73)"/>
<path d="M0 0 C4.29009563 3.63274227 6.80996542 7.69756566 9.4375 12.5625 C9.79392578 13.20251953 10.15035156 13.84253906 10.51757812 14.50195312 C12.75500462 18.56100119 14.83904992 22.68206898 16.88671875 26.83984375 C19.80792383 32.71412161 23.02718354 38.36060147 26.375 44 C27.61440643 46.10610909 28.85264003 48.21290871 30.08984375 50.3203125 C30.73034668 51.41118164 31.37084961 52.50205078 32.03076172 53.62597656 C35.37313809 59.35268639 38.65505276 65.11382738 41.9375 70.875 C43.27697162 73.2241707 44.6168824 75.57309059 45.95703125 77.921875 C46.28903534 78.50377594 46.62103943 79.08567688 46.96310425 79.68521118 C50.66747886 86.17451114 54.39329863 92.65138419 58.125 99.125 C58.72820068 100.17284668 59.33140137 101.22069336 59.95288086 102.30029297 C66.68042438 114.0524944 66.68042438 114.0524944 74 125.4375 C82.42534222 138.0309348 82.42534222 138.0309348 83.75 144.875 C82.73729317 149.0946118 80.43047845 150.6258579 77 153 C72.93778521 155.44949207 68.78892388 157.72876879 64.625 160 C62.4286497 161.20644594 60.23331415 162.4147413 58.0390625 163.625 C57.00144775 164.19677979 55.96383301 164.76855957 54.89477539 165.35766602 C51.72182264 167.15782231 48.65221606 169.07436026 45.61743164 171.09741211 C42.91786222 172.60387372 40.98339563 172.59667913 38 172 C34.26306087 169.4105439 32.0899122 166.96768813 29.94140625 162.984375 C29.39822754 161.99332764 28.85504883 161.00228027 28.29541016 159.98120117 C27.7235498 158.91490479 27.15168945 157.8486084 26.5625 156.75 C25.3131056 154.46900613 24.06175444 152.18908312 22.80859375 149.91015625 C22.17421387 148.75273926 21.53983398 147.59532227 20.88623047 146.40283203 C18.04793509 141.28243842 15.09323993 136.23333807 12.125 131.1875 C7.04746952 122.53196873 2.032249 113.84276242 -2.9375 105.125 C-8.12411704 96.02902636 -13.32683171 86.94288376 -18.5625 77.875 C-19.4738269 76.29658325 -19.4738269 76.29658325 -20.40356445 74.6862793 C-22.60357611 70.87714291 -24.80441793 67.06848687 -27.00567627 63.2600708 C-28.71766271 60.29813364 -30.42938514 57.33604475 -32.14038086 54.37353516 C-33.42307326 52.15276842 -34.70639548 49.93236529 -35.99047852 47.71240234 C-37.13798563 45.72554585 -38.2827601 43.73710768 -39.42431641 41.74682617 C-40.45119947 39.95670201 -41.48443124 38.17020016 -42.52490234 36.38793945 C-42.98074707 35.59476318 -43.4365918 34.80158691 -43.90625 33.984375 C-44.30392578 33.29956055 -44.70160156 32.61474609 -45.11132812 31.90917969 C-46 30 -46 30 -46.375 26.3125 C-42.83449612 17.78310428 -29.44908602 13.15269201 -21.5625 8.6875 C-20.27131894 7.9527646 -18.98030216 7.21774044 -17.68945312 6.48242188 C-5.21578837 -0.61362216 -5.21578837 -0.61362216 0 0 Z " fill="#0593FB" transform="translate(68,340)"/>
<path d="M0 0 C0.62003906 0.42410156 1.24007812 0.84820312 1.87890625 1.28515625 C15.75083617 10.47253342 30.76401318 15.91026912 46.38696289 21.30224609 C82.68272956 33.87866235 82.68272956 33.87866235 91.37890625 49.47265625 C100.18764954 68.74723315 100.22340948 90.08851473 93 110 C90.210414 107.46791424 88.3437652 104.59770367 86.3125 101.4375 C78.1468928 89.10787612 63.21238215 66.98125546 47.71484375 63.484375 C44.82829394 63.33769007 42.55954683 63.70274075 40 65.0625 C38.36486377 68.23057644 38.51740113 70.50115821 39 74 C41.04159958 76.63432204 43.30312024 78.47210311 45.94921875 80.4765625 C57.43120247 89.17565968 66.1044008 99.06821762 74 111 C74.6084375 111.89976563 75.216875 112.79953125 75.84375 113.7265625 C76.2253125 114.47679688 76.606875 115.22703125 77 116 C76.505 117.485 76.505 117.485 76 119 C46.6954619 108.26342354 22.92532843 89.90718374 9.06518555 61.31445312 C0.00938762 41.30353275 -0.70693312 21.56689801 0 0 Z " fill="#70D93F" transform="translate(246,11)"/>
<path d="M0 0 C0.515625 0.2475 1.03125 0.495 1.5625 0.75 C4.05295419 14.14129464 3.22275951 26.35574731 -3.9296875 38.2265625 C-5.34176121 40.18005307 -6.81184002 41.97220606 -8.4375 43.75 C-9.22125 44.61625 -10.005 45.4825 -10.8125 46.375 C-21.57025655 56.1082083 -33.37555427 61.68084739 -48.16015625 61.171875 C-55.41615623 60.63377841 -62.1736574 58.18440406 -69.02978516 55.88525391 C-73.14993826 54.51265669 -77.28321763 53.18330604 -81.41796875 51.85546875 C-89.30869127 49.3169874 -97.19562689 46.76760815 -105.06884766 44.17529297 C-107.96154732 43.22463332 -110.86143785 42.30441107 -113.77099609 41.40673828 C-114.45530197 41.1909462 -115.13960785 40.97515411 -115.84465027 40.75282288 C-117.69570598 40.16941066 -119.5502517 39.59710405 -121.4050293 39.02563477 C-124.58819773 37.68660771 -126.27081009 36.41241914 -128.4375 33.75 C-129.38495504 29.57970579 -128.83815262 25.74108806 -127.25 21.8125 C-125.03403179 19.290881 -123.71562043 18.49502737 -120.4375 17.75 C-114.34645236 18.25235444 -108.93612587 20.12566891 -103.1875 22.125 C-92.40087829 25.80069044 -81.56040215 29.27715638 -70.6875 32.6875 C-69.90934937 32.9322406 -69.13119873 33.1769812 -68.32946777 33.42913818 C-66.10032394 34.1300509 -63.8706108 34.82911495 -61.640625 35.52734375 C-60.97180298 35.73742569 -60.30298096 35.94750763 -59.6138916 36.16395569 C-48.58751671 39.60386778 -40.02807703 39.92258129 -29.4375 34.75 C-28.7053125 34.41355469 -27.973125 34.07710938 -27.21875 33.73046875 C-24.8713127 32.43834866 -24.48303836 31.1895895 -23.4375 28.75 C-22.93605469 28.02296875 -22.43460937 27.2959375 -21.91796875 26.546875 C-20.13156741 23.17203763 -20.03501495 20.60761609 -19.8125 16.8125 C-19.01473193 10.39683578 -19.01473193 10.39683578 -16.55859375 7.64453125 C-14.24810736 6.12375425 -11.94163893 4.91996655 -9.4375 3.75 C-8.16260445 2.943889 -6.8913071 2.13203641 -5.625 1.3125 C-2.4375 -0.25 -2.4375 -0.25 0 0 Z " fill="#E2AA73" transform="translate(355.4375,359.25)"/>
<path d="M0 0 C5.07647548 2.33667705 8.95308001 5.25789415 12 10 C12.86665343 14.24319181 12.87302553 18.33213963 12.74346924 22.65255737 C12.6481526 26.11810196 12.70013291 29.58089999 12.75390625 33.046875 C12.76777374 34.07614357 12.76777374 34.07614357 12.78192139 35.12620544 C13.32958188 61.18597761 26.69970732 85.27338338 44.5234375 103.59375 C56.8183694 115.27573808 71.82550319 123.89615726 88 129 C81.97539051 112.93437469 67.86033453 98.85253702 54 89.125 C51 87 51 87 50 85 C49.64826148 81.20122401 49.47298556 78.85639847 51.5 75.5625 C54.27764708 73.82647058 56.40311806 73.17143382 59.6953125 73.39453125 C76.89828316 77.91395574 93.2897625 101.64628374 102 116 C103.84657964 119.35370867 104.17234453 121.16797574 103.6875 125 C103.58824219 125.845625 103.48898437 126.69125 103.38671875 127.5625 C103.03882936 129.75525738 102.58001025 131.8584237 102 134 C77.91384121 135.55394573 54.28269081 123.61106377 36 109 C35.21753906 108.38511719 34.43507813 107.77023438 33.62890625 107.13671875 C13.57878614 90.44615531 0.03612405 63.29301097 -2.46484375 37.5390625 C-3.48085404 24.88843185 -2.67925227 12.4219878 0 0 Z " fill="#66C439" transform="translate(234,0)"/>
<path d="M0 0 C2.74088659 3.33189613 5.19282809 6.71744234 7.50390625 10.359375 C8.15746094 11.38538818 8.81101562 12.41140137 9.484375 13.46850586 C10.17015625 14.55139893 10.8559375 15.63429199 11.5625 16.75 C12.99038861 18.99641205 14.41871292 21.24254064 15.84765625 23.48828125 C16.54906738 24.59123535 17.25047852 25.69418945 17.97314453 26.83056641 C19.79758703 29.68348287 21.63956883 32.52336243 23.49609375 35.35546875 C24.00906006 36.13889648 24.52202637 36.92232422 25.05053711 37.72949219 C25.99701333 39.17128618 26.94689984 40.61084883 27.90063477 42.04785156 C31 46.77976209 31 46.77976209 31 49 C41.43175944 45.92292235 51.83290373 42.76567023 62.1875 39.4375 C63.18031982 39.11910156 64.17313965 38.80070312 65.19604492 38.47265625 C70.47880853 36.77720026 75.76026928 35.07784561 81.03955078 33.37158203 C85.67366705 31.87441964 90.31027419 30.38515911 94.94815063 28.89968872 C96.80901454 28.30215543 98.66903061 27.70197504 100.52816772 27.09909058 C103.15729739 26.24684034 105.78920376 25.40373569 108.421875 24.5625 C109.21356583 24.30352432 110.00525665 24.04454865 110.82093811 23.77772522 C111.56162033 23.54298996 112.30230255 23.3082547 113.06542969 23.06640625 C113.7072821 22.85959229 114.34913452 22.65277832 115.01043701 22.43969727 C117 22 117 22 122 22 C122 27.61 122 33.22 122 39 C120.494375 39.46148437 118.98875 39.92296875 117.4375 40.3984375 C105.73791085 43.9889559 94.04527138 47.6004473 82.3649292 51.25305176 C80.36676466 51.87757394 78.36822774 52.50089263 76.36962891 53.12402344 C70.0085029 55.10909787 63.65184246 57.10647666 57.3062439 59.14071655 C54.37069216 60.08095713 51.43315283 61.0148956 48.49542236 61.94830322 C47.09528061 62.39513468 45.69612436 62.84506751 44.29803467 63.29827881 C42.35473882 63.92803049 40.40831893 64.54708111 38.4609375 65.1640625 C37.35540527 65.51936035 36.24987305 65.8746582 35.11083984 66.24072266 C31.20333323 67.19444621 27.75204161 67.91810623 24.07397461 65.99072266 C19.58038292 61.93687708 16.55057153 57.61644481 13.5625 52.375 C12.69172119 50.88110715 11.81795308 49.38895326 10.94140625 47.8984375 C10.49104004 47.11275391 10.04067383 46.32707031 9.57666016 45.51757812 C8.00326544 42.90637703 8.00326544 42.90637703 5.88818359 40.31054688 C-0.59138899 31.84333132 -1.00128834 24.92000545 -0.5 14.75 C-0.45975661 13.31129881 -0.42327518 11.87248729 -0.390625 10.43359375 C-0.30362748 6.95338599 -0.16626186 3.47743078 0 0 Z " fill="#E6B40D" transform="translate(336,169)"/>
<path d="M0 0 C0.33 0 0.66 0 1 0 C3.52147991 23.4085467 -0.11361789 36.14098416 -15 55 C-16.57141024 57.14267333 -18.13436831 59.29090894 -19.68896484 61.44580078 C-21.88805259 64.05276402 -23.61582403 64.95569137 -26.98046875 65.34375 C-32.33564079 65.1758324 -37.28611718 63.20577184 -42.3125 61.5 C-44.55811381 60.75896068 -46.80422359 60.01942297 -49.05078125 59.28125 C-50.77675537 58.71083984 -50.77675537 58.71083984 -52.53759766 58.12890625 C-58.00304338 56.34691351 -63.50064533 54.67378905 -69 53 C-78.84803249 49.98972332 -88.66479922 46.89095069 -98.46679688 43.73413086 C-104.93789002 41.65152226 -111.41985521 39.62416528 -117.9375 37.69140625 C-120 37 -120 37 -121 36 C-121.07325168 33.13732433 -121.09238205 30.299281 -121.0625 27.4375 C-121.05798828 26.63119141 -121.05347656 25.82488281 -121.04882812 24.99414062 C-121.03700518 22.99606244 -121.01906914 20.99802217 -121 19 C-117.37039236 19.66435151 -113.9222345 20.58622425 -110.40625 21.70239258 C-109.30740479 22.04977982 -108.20855957 22.39716705 -107.07641602 22.75508118 C-105.89619873 23.1310997 -104.71598145 23.50711823 -103.5 23.89453125 C-101.62390876 24.48861501 -99.7478174 25.08269838 -97.87171936 25.67676067 C-95.24443026 26.50943392 -92.61792324 27.34455994 -89.99139404 28.17962646 C-85.42998913 29.62926043 -80.86726704 31.07474397 -76.3046875 32.52067566 C-73.88124116 33.28896135 -71.45804741 34.05804448 -69.03515625 34.82807922 C-62.28575288 36.97073784 -55.52675469 39.07823962 -48.75489807 41.14889526 C-46.50404235 41.84427996 -44.26333929 42.55945045 -42.02734375 43.30078125 C-41.00769531 43.63464844 -39.98804688 43.96851563 -38.9375 44.3125 C-37.37322266 44.83263672 -37.37322266 44.83263672 -35.77734375 45.36328125 C-32.86865786 46.03011079 -31.73684732 46.03783518 -29 45 C-27.61868492 43.54057817 -27.61868492 43.54057817 -26.546875 41.625 C-25.87652222 40.53517822 -25.87652222 40.53517822 -25.19262695 39.42333984 C-24.71656006 38.6236377 -24.24049316 37.82393555 -23.75 37 C-22.69786608 35.28308662 -21.64440674 33.56698497 -20.58984375 31.8515625 C-20.02120605 30.91989258 -19.45256836 29.98822266 -18.86669922 29.02832031 C-15.76981103 24.00428146 -12.58431179 19.03711314 -9.39831543 14.06933594 C-8.31966 12.38617265 -7.24429098 10.70090476 -6.16894531 9.015625 C-5.51120117 7.98695313 -4.85345703 6.95828125 -4.17578125 5.8984375 C-3.58708252 4.97724121 -2.99838379 4.05604492 -2.3918457 3.10693359 C-1 1 -1 1 0 0 Z " fill="#E6BF00" transform="translate(334,171)"/>
<path d="M0 0 C1.31176758 1.84399414 1.31176758 1.84399414 2.64453125 4.28515625 C3.14895752 5.19547607 3.65338379 6.1057959 4.1730957 7.04370117 C4.98460083 8.53800659 4.98460083 8.53800659 5.8125 10.0625 C6.98801246 12.18576628 8.1651458 14.30813586 9.34375 16.4296875 C9.94960937 17.5237793 10.55546875 18.61787109 11.1796875 19.74511719 C13.98804682 24.76671677 16.89765909 29.7271932 19.8125 34.6875 C25.30181886 44.05213019 30.70715175 53.46238125 36.07095337 62.89923096 C39.62610591 69.15242946 43.20983438 75.38510667 46.90234375 81.55859375 C47.51005615 82.5748584 48.11776855 83.59112305 48.74389648 84.63818359 C49.88710578 86.5418901 51.03607148 88.44215547 52.19165039 90.33837891 C52.69559326 91.17675293 53.19953613 92.01512695 53.71875 92.87890625 C54.38293945 93.97054077 54.38293945 93.97054077 55.06054688 95.08422852 C56 97 56 97 56 100 C53.42573716 101.39489126 50.84296943 102.76570979 48.25 104.125 C47.52039063 104.52332031 46.79078125 104.92164063 46.0390625 105.33203125 C44.97558594 105.88310547 44.97558594 105.88310547 43.890625 106.4453125 C43.24125977 106.79094238 42.59189453 107.13657227 41.92285156 107.49267578 C40 108 40 108 37.96435547 107.44116211 C35.3076873 105.4920803 34.23742802 103.39626043 32.6796875 100.49609375 C32.06738281 99.37195068 31.45507812 98.24780762 30.82421875 97.08959961 C30.50630371 96.49388153 30.18838867 95.89816345 29.86083984 95.28439331 C28.52952823 92.79028584 27.17399885 90.30965277 25.81939697 87.82814026 C25.14383696 86.59021971 24.46947597 85.35164405 23.79632568 84.1124115 C21.28719501 79.49824807 18.69158957 74.94710822 16 70.4375 C11.23140679 62.41936954 6.5605404 54.34683268 1.9140625 46.25732422 C-1.11428127 40.98766822 -4.15275474 35.72609697 -7.2459259 30.49427795 C-8.66213893 28.09760517 -10.07101004 25.69665543 -11.47940063 23.29537964 C-12.48461154 21.58862813 -13.50040907 19.88812604 -14.51635742 18.18774414 C-15.11939697 17.15770264 -15.72243652 16.12766113 -16.34375 15.06640625 C-16.88193359 14.15834229 -17.42011719 13.25027832 -17.97460938 12.31469727 C-19 10 -19 10 -18 7 C-15.55853015 5.45004539 -13.18080713 4.08015984 -10.625 2.75 C-9.59632812 2.18539063 -9.59632812 2.18539063 -8.546875 1.609375 C-3.37789004 -1.12596335 -3.37789004 -1.12596335 0 0 Z " fill="#E1AA73" transform="translate(101,354)"/>
<path d="M0 0 C5.02413764 2.58850094 7.31956277 9.33799512 9.1640625 14.37109375 C10.16320882 17.5647287 11.09723997 20.7502542 11.92578125 23.9921875 C12.12042969 24.73726562 12.31507813 25.48234375 12.515625 26.25 C15.37360828 45.35765964 11.6864335 65.48979436 6.92578125 83.9921875 C0.77799254 85.6199708 -4.71434071 86.19408839 -11.07421875 85.9921875 C-10.32748286 78.72848386 -8.66622554 71.84149455 -6.890625 64.76953125 C-3.010277 48.99557222 -1.38961361 31.34942 -9.32421875 16.5546875 C-11.23178114 12.6714355 -11.38320404 11.93120775 -10.07421875 7.9921875 C-8.3671875 5.71875 -8.3671875 5.71875 -6.26171875 3.6171875 C-5.23111328 2.55371094 -5.23111328 2.55371094 -4.1796875 1.46875 C-2.07421875 -0.0078125 -2.07421875 -0.0078125 0 0 Z " fill="#65C43A" transform="translate(347.07421875,48.0078125)"/>
<path d="M0 0 C17.20297066 4.51942449 33.59445 28.25175249 42.3046875 42.60546875 C44.15126714 45.95917742 44.47703203 47.77344449 43.9921875 51.60546875 C43.89292969 52.45109375 43.79367187 53.29671875 43.69140625 54.16796875 C43.3046875 56.60546875 43.3046875 56.60546875 42.3046875 60.60546875 C39.0046875 60.60546875 35.7046875 60.60546875 32.3046875 60.60546875 C31.85480469 59.75726563 31.40492188 58.9090625 30.94140625 58.03515625 C21.69465072 41.00965647 9.5335597 26.14100349 -6.578125 15.1640625 C-8.6953125 13.60546875 -8.6953125 13.60546875 -9.6953125 11.60546875 C-10.04705102 7.80669276 -10.22232694 5.46186722 -8.1953125 2.16796875 C-5.41766542 0.43193933 -3.29219444 -0.22309743 0 0 Z " fill="#976C53" transform="translate(293.6953125,73.39453125)"/>
</svg>
